# xmcd
#
# Track frame offsets: 
#        150
#        17352
#        34215
#        62942
#        79737
#        97340
#        120622
#        151187
#        172522
#        188780
#        212965
#        226302
#        248157
#        265100
#        287522
#        311957
#
# Disc length: 4379 seconds
#
# Revision: 2
# Processed by: cddbd v1.5.2PL0 Copyright (c) Steve Scherf et al.
# Submitted via: ExactAudioCopy v1.0b3
#
DISCID=d5111910
DTITLE=Various Artist - The Unplugged Collection Vol.1
DYEAR=1994
DGENRE=MTV Unplugged
TTITLE0=Stevie Ray Vaughan - Pride And Joy(MTV Unplugged)
TTITLE1=Eric Clapton - Before You Accuse Me(MTV Unplugged)
TTITLE2=Lenny Kravitz - Are You Gonna Go My Way(MTV Unplugged)
TTITLE3=Soul Asylum - Somebody To Shove(MTV Unplugged)
TTITLE4=k.d.lang - Barefoot(MTV Unplugged)
TTITLE5=Paul Simon - Graceland(MTV Unplugged)
TTITLE6=Elton John - Don't Let The Sun Go Down On Me(MTV Unplugged)
TTITLE7=Neil Young - Like A Hurricane(MTV Unplugged)
TTITLE8=Rod Stewart - Gasoline Alley(MTV Unplugged)
TTITLE9=John Mellencamp - Pink House(MTV Unplugged)
TTITLE10=Paul McCartney - We Can Work It Out(MTV Unplugged)
TTITLE11=Elvis Costello and The Rude 5 - Deep Dark Truthful Mirror(MTV U
TTITLE11=nplugged)
TTITLE12=Don Henley - Come Rain Or Come Shine(MTV Unplugged)
TTITLE13=Annie Lennox - Why(MTV Unplugged)
TTITLE14=10,000 Maniacs - Don't Talk(MTV Unplugged)
TTITLE15=R.E.M - Half A World Away(MTV Unplugged)
EXTD=YEAR: 1994
EXTT0=
EXTT1=
EXTT2=
EXTT3=
EXTT4=
EXTT5=
EXTT6=
EXTT7=
EXTT8=
EXTT9=
EXTT10=
EXTT11=
EXTT12=
EXTT13=
EXTT14=
EXTT15=
PLAYORDER=
